<?xml version="1.0" encoding="UTF-8"?>
<svg xmlns="http://www.w3.org/2000/svg" xmlns:xlink="http://www.w3.org/1999/xlink" viewBox="0 0 16 16" width="16px" height="16px">
<g id="surface550328">
<path style=" stroke:none;fill-rule:nonzero;fill:rgb(100%,100%,100%);fill-opacity:1;" d="M 3.46875 7.152344 L 11.46875 2.152344 L 12.53125 3.847656 L 4.53125 8.847656 Z M 3.46875 7.152344 "/>
<path style=" stroke:none;fill-rule:nonzero;fill:rgb(100%,100%,100%);fill-opacity:1;" d="M 3.46875 8.847656 L 4.527344 7.152344 L 12.53125 12.152344 L 11.472656 13.847656 Z M 3.46875 8.847656 "/>
<path style=" stroke:none;fill-rule:nonzero;fill:rgb(100%,100%,100%);fill-opacity:1;" d="M 15 3 C 15 4.65625 13.65625 6 12 6 C 10.34375 6 9 4.65625 9 3 C 9 1.34375 10.34375 0 12 0 C 13.65625 0 15 1.34375 15 3 Z M 15 3 "/>
<path style=" stroke:none;fill-rule:nonzero;fill:rgb(100%,100%,100%);fill-opacity:1;" d="M 7 8 C 7 9.65625 5.65625 11 4 11 C 2.34375 11 1 9.65625 1 8 C 1 6.34375 2.34375 5 4 5 C 5.65625 5 7 6.34375 7 8 Z M 7 8 "/>
<path style=" stroke:none;fill-rule:nonzero;fill:rgb(100%,100%,100%);fill-opacity:1;" d="M 15 13 C 15 14.65625 13.65625 16 12 16 C 10.34375 16 9 14.65625 9 13 C 9 11.34375 10.34375 10 12 10 C 13.65625 10 15 11.34375 15 13 Z M 15 13 "/>
</g>
</svg>
