<?xml version="1.0" encoding="UTF-8" standalone="no"?>
<!-- Created with Inkscape (http://www.inkscape.org/) -->

<svg
   width="39.6875mm"
   height="39.6875mm"
   viewBox="0 0 39.6875 39.6875"
   version="1.1"
   id="svg5"
   inkscape:version="1.1.2 (b8e25be833, 2022-02-05)"
   sodipodi:docname="admin.svg"
   xmlns:inkscape="http://www.inkscape.org/namespaces/inkscape"
   xmlns:sodipodi="http://sodipodi.sourceforge.net/DTD/sodipodi-0.dtd"
   xmlns="http://www.w3.org/2000/svg"
   xmlns:svg="http://www.w3.org/2000/svg">
  <sodipodi:namedview
     id="namedview7"
     pagecolor="#ffffff"
     bordercolor="#999999"
     borderopacity="1"
     inkscape:pageshadow="0"
     inkscape:pageopacity="0"
     inkscape:pagecheckerboard="0"
     inkscape:document-units="mm"
     showgrid="false"
     inkscape:snap-global="false"
     fit-margin-top="0"
     fit-margin-left="0"
     fit-margin-right="0"
     fit-margin-bottom="0"
     inkscape:zoom="0.70710678"
     inkscape:cx="368.40263"
     inkscape:cy="147.78532"
     inkscape:window-width="1920"
     inkscape:window-height="1001"
     inkscape:window-x="-9"
     inkscape:window-y="-9"
     inkscape:window-maximized="1"
     inkscape:current-layer="g6501" />
  <defs
     id="defs2" />
  <g
     inkscape:label="Camada 1"
     inkscape:groupmode="layer"
     id="layer1"
     transform="translate(-31.790464,-145.79881)">
    <rect
       style="fill:#191f3e;fill-opacity:1;stroke-width:0.284663"
       id="rect6705"
       width="27.270887"
       height="25.815678"
       x="38.089252"
       y="152.84042" />
    <g
       id="g6338"
       transform="translate(56.481432,-1.4986566)">
      <g
         id="g6501"
         transform="translate(59.77483,0.09354433)">
        <path
           style="fill:#f7a06e;stroke-width:0.264583"
           d="m -67.314649,186.62733 c -2.306534,-0.29657 -5.956723,-1.67038 -7.988606,-3.00664 -6.240446,-4.10401 -9.758428,-11.5861 -8.857295,-18.83783 1.576175,-12.68402 14.555992,-20.60641 26.436209,-16.13568 13.451374,5.06199 17.178478,22.19086 7.035568,32.33377 -3.108524,3.10852 -7.208629,5.12434 -11.523092,5.66532 -2.470755,0.30981 -2.548269,0.30952 -5.102784,-0.0189 z m 4.126622,-8.47023 c 4.14263,-2.10735 7.322308,-6.19037 8.100945,-10.40241 0.350999,-1.89872 0.382278,-7.53666 0.04671,-8.41927 -0.133282,-0.35055 -0.579766,-0.76924 -0.992188,-0.93043 -3.185717,-1.2451 -13.924427,-1.2451 -17.110143,0 -1.053236,0.41164 -1.23515,1.12037 -1.229918,4.79172 0.0081,5.68115 1.064124,8.6279 4.232315,11.80989 1.614971,1.622 4.709971,3.71716 5.491049,3.71716 0.191009,0 0.848562,-0.255 1.461228,-0.56666 z m -5.142762,-6.74466 c -0.5698,-0.16388 -0.746739,-0.89199 -0.751144,-3.09097 -0.0042,-2.11997 0.294912,-2.82688 1.196321,-2.82688 0.605915,0 0.652149,-0.0935 0.652149,-1.31874 0,-1.08112 0.138148,-1.47336 0.766674,-2.1768 0.634456,-0.71008 0.958529,-0.85806 1.879159,-0.85806 0.920631,0 1.244704,0.14798 1.87916,0.85806 0.628526,0.70344 0.766674,1.09568 0.766674,2.1768 0,1.23371 0.04307,1.31874 0.668007,1.31874 0.484454,0 0.744959,0.19993 0.94806,0.7276 0.313124,0.81353 0.223111,4.66474 -0.117004,5.00604 -0.233018,0.23384 -7.153583,0.39545 -7.888056,0.18421 z m 4.536909,-7.21246 c 0,-0.90669 -0.11892,-1.34024 -0.396875,-1.4469 -0.83524,-0.32052 -1.190625,0.11137 -1.190625,1.4469 0,1.26207 0.01995,1.29461 0.79375,1.29461 0.773797,0 0.79375,-0.0325 0.79375,-1.29461 z"
           id="path6702" />
      </g>
    </g>
  </g>
</svg>
