<?xml version="1.0" encoding="UTF-8" standalone="no"?>
<!-- Created with Inkscape (http://www.inkscape.org/) -->

<svg
   width="39.6875mm"
   height="39.6875mm"
   viewBox="0 0 39.6875 39.6875"
   version="1.1"
   id="svg5"
   inkscape:version="1.1.2 (b8e25be833, 2022-02-05)"
   sodipodi:docname="dados.svg"
   xmlns:inkscape="http://www.inkscape.org/namespaces/inkscape"
   xmlns:sodipodi="http://sodipodi.sourceforge.net/DTD/sodipodi-0.dtd"
   xmlns="http://www.w3.org/2000/svg"
   xmlns:svg="http://www.w3.org/2000/svg">
  <sodipodi:namedview
     id="namedview7"
     pagecolor="#ffffff"
     bordercolor="#999999"
     borderopacity="1"
     inkscape:pageshadow="0"
     inkscape:pageopacity="0"
     inkscape:pagecheckerboard="0"
     inkscape:document-units="mm"
     showgrid="false"
     inkscape:snap-global="false"
     fit-margin-top="0"
     fit-margin-left="0"
     fit-margin-right="0"
     fit-margin-bottom="0"
     inkscape:zoom="1.4142136"
     inkscape:cx="206.82873"
     inkscape:cy="141.77491"
     inkscape:window-width="1920"
     inkscape:window-height="1001"
     inkscape:window-x="-9"
     inkscape:window-y="-9"
     inkscape:window-maximized="1"
     inkscape:current-layer="g6745" />
  <defs
     id="defs2" />
  <g
     inkscape:label="Camada 1"
     inkscape:groupmode="layer"
     id="layer1"
     transform="translate(-31.790464,-145.79881)">
    <rect
       style="fill:#191f3e;fill-opacity:1;stroke-width:0.284663"
       id="rect6945"
       width="27.270887"
       height="25.815678"
       x="38.089252"
       y="152.84042" />
    <g
       id="g6338"
       transform="translate(56.481432,-1.4986566)">
      <g
         id="g6501"
         transform="translate(59.77483,0.09354433)">
        <g
           id="g6745"
           transform="translate(90.363827,-0.74835468)">
          <path
             style="fill:#f7a06e;stroke-width:0.264583"
             d="m -157.72525,187.51601 c -2.30653,-0.29657 -5.95672,-1.67038 -7.9886,-3.00664 -6.24045,-4.10401 -9.75843,-11.5861 -8.8573,-18.83783 1.57618,-12.68402 14.556,-20.60641 26.43621,-16.13568 13.45138,5.06199 17.17848,22.19086 7.03557,32.33377 -3.10852,3.10852 -7.20863,5.12434 -11.52309,5.66532 -2.47076,0.30981 -2.54827,0.30952 -5.10279,-0.0189 z m -3.35839,-13.01003 c 0,-2.1784 -0.10498,-3.35935 -0.3175,-3.57188 -0.41164,-0.41164 -2.65753,-0.41164 -3.06917,0 -0.21253,0.21253 -0.3175,1.39348 -0.3175,3.57188 v 3.25437 h 1.85208 1.85209 z m 5.29166,-1.61878 c 0,-2.68023 -0.0723,-5.06148 -0.1606,-5.29167 -0.23047,-0.60061 -3.15249,-0.60061 -3.38296,0 -0.0883,0.23019 -0.1606,2.61144 -0.1606,5.29167 v 4.87315 h 1.85208 1.85208 z m 5.29167,0.69274 c 0,-2.89866 -0.0973,-4.27777 -0.3175,-4.49792 -0.41164,-0.41164 -2.65753,-0.41164 -3.06917,0 -0.22015,0.22015 -0.3175,1.59926 -0.3175,4.49792 v 4.18041 h 1.85209 1.85208 z m 5.29167,-1.7198 c 0,-4.23627 -0.0895,-5.98974 -0.3175,-6.2177 -0.17463,-0.17463 -0.86519,-0.3175 -1.53459,-0.3175 -0.66939,0 -1.35995,0.14287 -1.53458,0.3175 -0.22796,0.22796 -0.3175,1.98143 -0.3175,6.2177 v 5.90021 h 1.85208 1.85209 z m -16.52443,-5.33255 c 0.35718,-0.35719 0.64943,-0.82103 0.64943,-1.03075 0,-0.61611 2.38619,-1.9877 3.57229,-2.05336 1.31863,-0.073 3.08832,0.79445 3.51032,1.72064 0.63544,1.39465 2.90128,1.19493 3.32812,-0.29336 0.31024,-1.08175 2.52497,-2.98541 3.47324,-2.98541 0.83028,0 1.99103,-1.07974 1.99103,-1.85208 0,-0.71384 -1.13824,-1.85208 -1.85209,-1.85208 -0.68024,0 -1.85208,1.12568 -1.85208,1.77913 0,0.68788 -2.46442,2.55446 -3.63457,2.75286 -1.25913,0.21349 -2.90796,-0.56217 -3.64492,-1.71468 -0.7354,-1.15007 -1.96233,-1.27641 -2.74408,-0.28257 -0.30787,0.39139 -0.5619,0.84439 -0.56452,1.00667 -0.009,0.56341 -2.5016,1.96812 -3.24133,1.82671 -0.50304,-0.0962 -0.87533,0.0522 -1.36832,0.54515 -0.85091,0.8509 -0.85949,1.60147 -0.0278,2.43313 0.35718,0.35719 0.89838,0.64943 1.20265,0.64943 0.30427,0 0.84546,-0.29224 1.20265,-0.64943 z"
             id="path6942" />
        </g>
      </g>
    </g>
  </g>
</svg>
