<?xml version="1.0" encoding="UTF-8" standalone="no"?>
<!-- Created with Inkscape (http://www.inkscape.org/) -->

<svg
   width="39.6875mm"
   height="39.6875mm"
   viewBox="0 0 39.6875 39.6875"
   version="1.1"
   id="svg5"
   inkscape:version="1.1.2 (b8e25be833, 2022-02-05)"
   sodipodi:docname="matinal.svg"
   xmlns:inkscape="http://www.inkscape.org/namespaces/inkscape"
   xmlns:sodipodi="http://sodipodi.sourceforge.net/DTD/sodipodi-0.dtd"
   xmlns="http://www.w3.org/2000/svg"
   xmlns:svg="http://www.w3.org/2000/svg">
  <sodipodi:namedview
     id="namedview7"
     pagecolor="#ffffff"
     bordercolor="#999999"
     borderopacity="1"
     inkscape:pageshadow="0"
     inkscape:pageopacity="0"
     inkscape:pagecheckerboard="0"
     inkscape:document-units="mm"
     showgrid="false"
     inkscape:snap-global="false"
     fit-margin-top="0"
     fit-margin-left="0"
     fit-margin-right="0"
     fit-margin-bottom="0"
     inkscape:zoom="2"
     inkscape:cx="271.75"
     inkscape:cy="92.25"
     inkscape:window-width="1920"
     inkscape:window-height="1001"
     inkscape:window-x="-9"
     inkscape:window-y="-9"
     inkscape:window-maximized="1"
     inkscape:current-layer="layer1" />
  <defs
     id="defs2" />
  <g
     inkscape:label="Camada 1"
     inkscape:groupmode="layer"
     id="layer1"
     transform="translate(-31.790464,-145.79881)">
    <rect
       style="fill:#191f3e;fill-opacity:1;stroke-width:0.284663"
       id="rect6300"
       width="27.270887"
       height="25.815678"
       x="38.423038"
       y="152.8576" />
    <path
       style="fill:#f7a06e;stroke-width:0.264583"
       d="m 48.960436,185.18505 c -2.306535,-0.29657 -5.956723,-1.67038 -7.988606,-3.00664 -6.240446,-4.10401 -9.758428,-11.5861 -8.857295,-18.83783 1.576175,-12.68402 14.555992,-20.60641 26.436218,-16.13568 13.45137,5.06199 17.17847,22.19086 7.03556,32.33377 -3.10852,3.10852 -7.20862,5.12434 -11.523094,5.66532 -2.470754,0.30981 -2.548268,0.30952 -5.102783,-0.0189 z m -1.32953,-10.46252 c 2.07232,1.07164 5.425564,1.09342 7.919377,0.0514 l 0.99905,-0.41743 1.22006,1.20171 1.22006,1.20172 0.76621,-0.79975 0.7662,-0.79975 -1.01352,-1.03794 -1.01353,-1.03795 0.96351,-1.31257 c 2.442,-3.32666 2.81206,-6.81654 1.11573,-10.52182 -1.73408,-3.78773 -6.451231,-6.21252 -10.526137,-5.41083 -4.25829,0.83776 -7.267007,3.79878 -8.136389,8.00739 -0.536197,2.59569 0.175128,5.43239 1.978111,7.88855 l 0.990465,1.34928 -1.013528,1.03795 -1.013528,1.03794 0.766207,0.79975 0.766207,0.79975 1.236856,-1.21826 c 1.218859,-1.20053 1.248085,-1.21245 2.008589,-0.81918 z m 1.766836,-1.77297 c -5.443786,-1.78189 -7.128911,-8.6785 -3.103972,-12.70344 1.549108,-1.5491 3.031076,-2.13599 5.393685,-2.13599 2.356094,0 3.855798,0.59097 5.353448,2.10957 1.58282,1.60498 2.18718,3.10266 2.18718,5.42011 0,1.52779 -0.13798,2.2644 -0.59968,3.20142 -0.75988,1.54215 -2.19167,2.97969 -3.69038,3.70521 -1.451283,0.70255 -4.048216,0.89151 -5.540281,0.40312 z m 5.729301,-7.29454 c 0,-1.03805 -0.005,-1.04351 -1.124484,-1.12448 l -1.124479,-0.0814 -0.07877,-1.65364 -0.07877,-1.65365 h -1.045708 -1.045708 v 2.77813 2.77812 h 2.248958 2.248961 z M 44.411413,156.731 c 1.309688,-1.11212 2.356836,-2.06709 2.326997,-2.12217 -0.02984,-0.0551 -0.337908,-0.46258 -0.684596,-0.90556 l -0.630342,-0.80543 -2.562612,2.15463 -2.562612,2.15463 0.601374,0.76213 c 0.330756,0.41918 0.720437,0.76701 0.865958,0.77296 0.145521,0.006 1.336146,-0.89908 2.645833,-2.01119 z m 18.06388,1.23823 0.60137,-0.76213 -2.56261,-2.15463 -2.56261,-2.15463 -0.63034,0.80543 c -0.34669,0.44298 -0.62916,0.87413 -0.62771,0.9581 0.004,0.2474 4.62643,4.07757 4.91594,4.07361 0.14552,-0.002 0.5352,-0.34657 0.86596,-0.76575 z"
       id="path6297" />
  </g>
</svg>
