<?xml version="1.0" encoding="UTF-8" standalone="no"?>
<!-- Created with Inkscape (http://www.inkscape.org/) -->

<svg
   width="39.6875mm"
   height="39.6875mm"
   viewBox="0 0 39.6875 39.6875"
   version="1.1"
   id="svg5"
   inkscape:version="1.1.2 (b8e25be833, 2022-02-05)"
   sodipodi:docname="nutricao.svg"
   xmlns:inkscape="http://www.inkscape.org/namespaces/inkscape"
   xmlns:sodipodi="http://sodipodi.sourceforge.net/DTD/sodipodi-0.dtd"
   xmlns="http://www.w3.org/2000/svg"
   xmlns:svg="http://www.w3.org/2000/svg">
  <sodipodi:namedview
     id="namedview7"
     pagecolor="#ffffff"
     bordercolor="#999999"
     borderopacity="1"
     inkscape:pageshadow="0"
     inkscape:pageopacity="0"
     inkscape:pagecheckerboard="0"
     inkscape:document-units="mm"
     showgrid="false"
     inkscape:snap-global="false"
     fit-margin-top="0"
     fit-margin-left="0"
     fit-margin-right="0"
     fit-margin-bottom="0"
     inkscape:zoom="2.8284271"
     inkscape:cx="184.02454"
     inkscape:cy="81.140503"
     inkscape:window-width="1920"
     inkscape:window-height="1001"
     inkscape:window-x="-9"
     inkscape:window-y="-9"
     inkscape:window-maximized="1"
     inkscape:current-layer="g6338" />
  <defs
     id="defs2" />
  <g
     inkscape:label="Camada 1"
     inkscape:groupmode="layer"
     id="layer1"
     transform="translate(-31.790464,-145.79881)">
    <rect
       style="fill:#191f3e;fill-opacity:1;stroke-width:0.284663"
       id="rect6462"
       width="27.270887"
       height="25.815678"
       x="38.089252"
       y="152.84042" />
    <g
       id="g6338"
       transform="translate(56.481432,-1.4986566)">
      <path
         style="fill:#f7a06e;stroke-width:0.264583"
         d="m -7.6403558,186.78608 c -2.306535,-0.29657 -5.9567232,-1.67038 -7.9886062,-3.00664 -6.240446,-4.10401 -9.758428,-11.5861 -8.857295,-18.83783 1.576175,-12.68402 14.5559922,-20.60641 26.4362092,-16.13568 13.4513738,5.06199 17.1784778,22.19086 7.035567,32.33377 -3.108523,3.10852 -7.208628,5.12434 -11.523092,5.66532 -2.470754,0.30981 -2.548268,0.30952 -5.102783,-0.0189 z m 5.23131,-9.10291 c 4.356635,-1.13475 7.300948,-4.33338 8.139515,-8.84255 1.030865,-5.54319 -3.077715,-11.13404 -8.99016,-12.23357 -6.8848242,-1.28036 -13.5678002,5.40261 -12.2874362,12.28744 0.816281,4.38934 3.795069,7.63854 8.0542812,8.78545 1.836125,0.49442 3.194678,0.49529 5.0838,0.003 z m -7.5514,-4.51522 -0.6414332,-0.68747 2.3812502,-2.20756 2.38125,-2.20755 -0.570906,-0.57895 c -0.494632,-0.5016 -0.680014,-0.54091 -1.387543,-0.29426 -0.802516,0.27975 -0.848797,0.24752 -2.6766322,-1.86422 -1.2786,-1.4772 -1.774636,-2.23426 -1.586911,-2.42198 0.187724,-0.18773 0.717411,0.16572 1.694571,1.13074 0.7818172,0.77211 1.4924352,1.28903 1.5791522,1.14872 0.08672,-0.14031 -0.09077,-0.47938 -0.394412,-0.75349 -0.303643,-0.27411 -0.8991282,-0.936 -1.3233012,-1.47086 -1.198982,-1.51187 -0.414261,-1.48183 1.2011682,0.046 1.925244,1.82082 2.302486,1.24304 0.427806,-0.65522 -0.759215,-0.76876 -1.2649912,-1.46907 -1.1239482,-1.55624 0.2291862,-0.14165 4.0125172,2.86656 4.4060902,3.50337 0.08716,0.14102 0.01375,0.57402 -0.163131,0.96223 -0.288419,0.63301 -0.254647,0.75651 0.327368,1.19714 0.556086,0.42101 0.724695,0.44104 1.178129,0.13999 0.42152,-0.27985 0.512004,-0.58663 0.444798,-1.50804 -0.109597,-1.50261 0.724497,-2.79538 2.32538,-3.60412 2.42524201,-1.22519 4.151666,-0.47873 3.907284,1.68941 -0.267057,2.36934 -2.22738499,4.25275 -4.157039,3.99393 -0.947261,-0.12706 -1.02395,-0.0657 -4.096596,3.27823 -1.722195,1.87423 -3.212195,3.4077 -3.311112,3.4077 -0.09892,0 -0.468493,-0.30936 -0.821282,-0.68747 z m 7.830306,-1.01522 c -1.481512,-1.68747 -1.490914,-1.70876 -1.051083,-2.38002 l 0.443801,-0.67733 0.962563,0.76918 c 0.52941,0.42305 1.37155201,1.19504 1.87142601,1.71553 l 0.90886199,0.94636 -0.62425299,0.66449 c -0.34334,0.36546 -0.712494,0.66448 -0.820343,0.66448 -0.107849,0 -0.86878701,-0.76621 -1.69097301,-1.70269 z"
         id="path6459" />
    </g>
  </g>
</svg>
