<?xml version="1.0" encoding="UTF-8" standalone="no"?>
<!-- Created with Inkscape (http://www.inkscape.org/) -->

<svg
   width="39.6875mm"
   height="39.6875mm"
   viewBox="0 0 39.6875 39.6875"
   version="1.1"
   id="svg5"
   inkscape:version="1.1.2 (b8e25be833, 2022-02-05)"
   sodipodi:docname="treino.svg"
   xmlns:inkscape="http://www.inkscape.org/namespaces/inkscape"
   xmlns:sodipodi="http://sodipodi.sourceforge.net/DTD/sodipodi-0.dtd"
   xmlns="http://www.w3.org/2000/svg"
   xmlns:svg="http://www.w3.org/2000/svg">
  <sodipodi:namedview
     id="namedview7"
     pagecolor="#ffffff"
     bordercolor="#999999"
     borderopacity="1"
     inkscape:pageshadow="0"
     inkscape:pageopacity="0"
     inkscape:pagecheckerboard="0"
     inkscape:document-units="mm"
     showgrid="false"
     inkscape:snap-global="false"
     fit-margin-top="0"
     fit-margin-left="0"
     fit-margin-right="0"
     fit-margin-bottom="0"
     inkscape:zoom="2"
     inkscape:cx="82.5"
     inkscape:cy="121.75"
     inkscape:window-width="1920"
     inkscape:window-height="1001"
     inkscape:window-x="-9"
     inkscape:window-y="-9"
     inkscape:window-maximized="1"
     inkscape:current-layer="layer1" />
  <defs
     id="defs2" />
  <g
     inkscape:label="Camada 1"
     inkscape:groupmode="layer"
     id="layer1"
     transform="translate(-31.790464,-145.79881)">
    <rect
       style="fill:#191f3e;fill-opacity:1;stroke-width:0.264583"
       id="rect5750"
       width="25.4"
       height="23.944792"
       x="38.934212"
       y="154.0009" />
    <path
       id="path5747"
       style="fill:#f7a16f;stroke-width:0.264583"
       d="m 51.660222,146.05622 c -3.33955,0 -3.73483,0.0562 -6.07147,0.85937 -3.21564,1.10532 -5.2317,2.33311 -7.64294,4.6545 -2.40563,2.31599 -3.9884,4.82103 -5.10873,8.08633 -0.80678,2.3514 -0.86197,2.74396 -0.86197,6.08541 0,3.33955 0.0557,3.73431 0.85887,6.07095 1.10531,3.21564 2.3331,5.23222 4.65449,7.64346 2.88949,3.00133 6.83961,5.13722 10.83448,5.85908 0.74404,0.13443 2.61787,0.19991 4.16409,0.14521 5.15448,-0.18229 9.71471,-2.23411 13.3444,-6.00429 2.32139,-2.41124 3.54918,-4.42782 4.6545,-7.64346 0.80318,-2.33664 0.85938,-2.7314 0.85938,-6.07095 0,-3.34145 -0.0557,-3.73401 -0.86248,-6.08541 -1.12033,-3.2653 -2.70259,-5.77034 -5.10822,-8.08633 -2.41124,-2.32139 -4.42782,-3.54918 -7.64346,-4.6545 -2.33664,-0.80315 -2.7314,-0.85937 -6.07094,-0.85937 z m 6.59959,12.53928 c 0.51933,-0.003 1.06588,0.12182 1.61076,0.40359 2.06984,1.07036 2.06984,4.47711 0,5.54747 -1.59129,0.82289 -3.61811,0.27576 -4.3708,-1.17977 -1.22069,-2.36058 0.50964,-4.76033 2.76004,-4.77129 z m -9.97406,0.94361 c 0.0792,-0.004 0.14093,0.004 0.18293,0.0253 0.86307,0.43302 7.39384,7.62875 7.07502,7.79539 -0.17156,0.0897 -0.80194,0.23735 -1.40095,0.32815 -0.59901,0.0908 -2.32541,0.70006 -3.83646,1.35392 -2.06139,0.892 -3.07742,1.18787 -4.07003,1.18287 -1.3101,-0.006 -3.04718,-0.55749 -3.03858,-0.96479 0.002,-0.11616 1.22284,-0.89432 2.71198,-1.72961 1.48915,-0.83529 2.87019,-1.62455 3.06855,-1.7539 0.29156,-0.19014 0.22315,-0.46946 -0.35605,-1.45779 -0.39405,-0.6724 -0.82602,-1.29066 -0.96015,-1.37356 -0.13413,-0.0829 -1.31884,0.16593 -2.6324,0.55242 -2.57668,0.75813 -3.27073,0.64357 -3.10575,-0.51108 0.0997,-0.69767 5.17422,-3.39116 6.36189,-3.44734 z m 7.82897,9.44025 c 0.67223,-0.0146 1.33442,0.054 2.03967,0.19741 2.098,0.42671 4.80465,1.72321 5.02089,2.4045 0.1821,0.57377 -0.26009,1.30431 -0.78962,1.30431 -0.17722,0 -1.07527,-0.37668 -1.99574,-0.83664 -1.26111,-0.63018 -2.13827,-0.86594 -3.55844,-0.95704 -1.67426,-0.10745 -2.11977,-0.0252 -3.99097,0.73845 -1.15852,0.47277 -2.64212,1.06629 -3.29696,1.31879 -2.45389,0.94614 -5.17636,0.79059 -7.6047,-0.4346 -1.71705,-0.86631 -2.1958,-1.44975 -1.75855,-2.14406 0.43927,-0.6975 0.99716,-0.69091 2.05259,0.0253 1.23871,0.84062 3.35219,1.33801 4.82709,1.13585 0.64346,-0.0882 2.3968,-0.69475 3.8964,-1.34772 2.15053,-0.93641 3.67944,-1.37247 5.15834,-1.40457 z" />
  </g>
</svg>
