<?xml version="1.0" encoding="UTF-8" standalone="no"?>
<!-- Created with Inkscape (http://www.inkscape.org/) -->

<svg
   width="39.6875mm"
   height="39.6875mm"
   viewBox="0 0 39.6875 39.6875"
   version="1.1"
   id="svg5"
   inkscape:version="1.1.2 (b8e25be833, 2022-02-05)"
   sodipodi:docname="treinos.svg"
   xmlns:inkscape="http://www.inkscape.org/namespaces/inkscape"
   xmlns:sodipodi="http://sodipodi.sourceforge.net/DTD/sodipodi-0.dtd"
   xmlns="http://www.w3.org/2000/svg"
   xmlns:svg="http://www.w3.org/2000/svg">
  <sodipodi:namedview
     id="namedview7"
     pagecolor="#ffffff"
     bordercolor="#999999"
     borderopacity="1"
     inkscape:pageshadow="0"
     inkscape:pageopacity="0"
     inkscape:pagecheckerboard="0"
     inkscape:document-units="mm"
     showgrid="false"
     fit-margin-top="0"
     fit-margin-left="0"
     fit-margin-right="0"
     fit-margin-bottom="0"
     inkscape:snap-global="false"
     inkscape:zoom="2"
     inkscape:cx="77.75"
     inkscape:cy="76.25"
     inkscape:window-width="1920"
     inkscape:window-height="1001"
     inkscape:window-x="-9"
     inkscape:window-y="-9"
     inkscape:window-maximized="1"
     inkscape:current-layer="g21" />
  <defs
     id="defs2" />
  <g
     inkscape:label="Camada 1"
     inkscape:groupmode="layer"
     id="layer1"
     transform="translate(-87.142342,-149.10339)">
    <rect
       style="fill:#191f3e;stroke-width:0.207218"
       id="rect431"
       width="27.516663"
       height="25.267708"
       x="93.095467"
       y="157.04091" />
    <g
       id="g21"
       transform="translate(83.211459,-22.357292)">
      <path
         style="fill:#f7a16f;stroke-width:0.264583"
         d="m 21.078231,210.72074 c -2.23308,-0.28785 -5.551516,-1.49032 -7.691276,-2.78699 -2.114826,-1.28157 -5.0923597,-4.25911 -6.3739277,-6.37393 -4.792962,-7.90928 -3.627799,-17.79801 2.861738,-24.28755 7.7444957,-7.74449 20.0552457,-7.74449 27.7997357,0 7.74449,7.74449 7.74449,20.05525 0,27.79974 -3.15331,3.15331 -7.15547,5.11653 -11.555,5.66819 -2.43471,0.30528 -2.52474,0.30494 -5.04127,-0.0195 z m 15.92458,-10.8835 c -7.9e-4,-4.13197 -0.0523,-4.64814 -0.54249,-5.45225 -0.46711,-0.76618 -0.63962,-0.86286 -1.25578,-0.70376 -0.39285,0.10144 -1.20543,0.20632 -1.80572,0.23306 -0.60029,0.0267 -1.27587,0.20169 -1.50129,0.38878 -0.26841,0.22275 -0.73681,0.27882 -1.35713,0.16245 -0.66921,-0.12555 -1.13836,-0.0525 -1.59825,0.24883 -0.35804,0.2346 -0.69684,0.42654 -0.75289,0.42654 -0.0561,0 -0.43481,-0.80367 -0.84169,-1.78594 -0.40688,-0.98226 -1.01704,-2.07787 -1.35591,-2.43468 -0.52238,-0.55003 -0.72714,-0.6097 -1.34572,-0.39216 -1.44381,0.50776 -1.35915,1.15802 0.80716,6.20028 l 1.98929,4.63021 -2.10239,0.14224 c -1.83544,0.12417 -2.19389,0.23372 -2.82291,0.86275 -0.58069,0.58069 -0.66454,0.80982 -0.43208,1.18068 0.41634,0.66419 1.61049,0.77752 8.63493,0.81949 l 6.28386,0.0376 -0.001,-4.56407 z m -14.51384,0.60113 c 0.63435,-0.28785 1.42126,-0.52597 1.74868,-0.52917 0.32889,-0.003 0.59532,-0.17031 0.59532,-0.37337 0,-1.77397 -5.28832,-2.78678 -9.723442,-1.86222 l -0.859896,0.17926 v -6.89441 c 0,-6.33776 0.03738,-6.90542 0.463021,-7.03081 1.80337,-0.53123 3.890257,-0.69526 5.423957,-0.42634 2.80191,0.49129 2.57969,0.20313 2.57969,3.34508 0,1.53029 0.0893,2.73491 0.19844,2.67694 0.10914,-0.058 0.58539,-0.25814 1.05833,-0.44481 l 0.8599,-0.3394 v -2.33753 c 0,-2.63642 -0.1986,-2.41313 2.57968,-2.90028 1.19889,-0.21022 2.10841,-0.21022 3.30729,0 2.82182,0.49478 2.55701,0.0222 2.6392,4.70999 0.0619,3.53179 0.13202,4.13737 0.46966,4.05701 0.21828,-0.052 0.84336,-0.15693 1.38906,-0.23328 l 0.99219,-0.13881 v -3.22189 c 0,-2.42328 -0.0963,-3.34919 -0.38846,-3.73547 -0.21365,-0.28248 -0.39225,-0.83251 -0.39688,-1.2223 -0.013,-1.0928 -0.58794,-1.44596 -3.10674,-1.90825 -2.8806,-0.52869 -3.69637,-0.53107 -6.39744,-0.0187 -1.93135,0.36637 -2.36045,0.36637 -4.29179,0 -2.70108,-0.51238 -3.51685,-0.51 -6.397443,0.0187 -2.518805,0.46229 -3.093771,0.81545 -3.106746,1.90825 -0.0046,0.38979 -0.183222,0.93982 -0.396875,1.2223 -0.319165,0.42197 -0.388461,1.78105 -0.388461,7.61879 v 7.10521 l 0.649432,0.64943 c 0.636838,0.63684 0.733768,0.64943 4.998193,0.64943 3.76755,0 4.5029,-0.0699 5.50213,-0.52335 z"
         id="path428" />
    </g>
  </g>
</svg>
